HIERARCHY
ROOT Hips
{
	OFFSET 0.000000 0.000000 0.000000
	CHANNELS 6 Xposition Yposition Zposition Zrotation Yrotation Xrotation 
	JOINT LHipJoint
	{
		OFFSET 0.000000 0.000000 0.000000
		CHANNELS 3 Zrotation Yrotation Xrotation
		JOINT LeftUpLeg
		{
			OFFSET 8.178360 -10.767780 5.035740
			CHANNELS 3 Zrotation Yrotation Xrotation
			JOINT LeftLeg
			{
				OFFSET 14.688660 -40.356780 0.000000
				CHANNELS 3 Zrotation Yrotation Xrotation
				JOINT LeftFoot
				{
					OFFSET 15.373200 -42.237540 0.000000
					CHANNELS 3 Zrotation Yrotation Xrotation
					JOINT LeftToeBase
					{
						OFFSET 0.945840 -2.598660 13.935300
						CHANNELS 3 Zrotation Yrotation Xrotation
						End Site
						{
							OFFSET 0.000000 0.000000 0.000000
						}
					}
				}
			}
		}
	}
	JOINT RHipJoint
	{
		OFFSET 0.000000 0.000000 0.000000
		CHANNELS 3 Zrotation Yrotation Xrotation
		JOINT RightUpLeg
		{
			OFFSET -7.833120 -10.767780 5.035740
			CHANNELS 3 Zrotation Yrotation Xrotation
			JOINT RightLeg
			{
				OFFSET -15.255180 -41.913300 0.000000
				CHANNELS 3 Zrotation Yrotation Xrotation
				JOINT RightFoot
				{
					OFFSET -15.409560 -42.337380 0.000000
					CHANNELS 3 Zrotation Yrotation Xrotation
					JOINT RightToeBase
					{
						OFFSET -0.988380 -2.715540 14.178900
						CHANNELS 3 Zrotation Yrotation Xrotation
						End Site
						{
							OFFSET 0.000000 0.000000 0.000000
						}
					}
				}
			}
		}
	}
	JOINT LowerBack
	{
		OFFSET 0.000000 0.000000 0.000000
		CHANNELS 3 Zrotation Yrotation Xrotation
		JOINT Spine
		{
			OFFSET 0.169620 12.213540 -1.160280
			CHANNELS 3 Zrotation Yrotation Xrotation
			JOINT Spine1
			{
				OFFSET 0.340320 12.293100 -0.256500
				CHANNELS 3 Zrotation Yrotation Xrotation
				JOINT Neck
				{
					OFFSET 0.000000 0.000000 0.000000
					CHANNELS 3 Zrotation Yrotation Xrotation
					JOINT Neck1
					{
						OFFSET -0.325020 10.477440 1.032120
						CHANNELS 3 Zrotation Yrotation Xrotation
						JOINT Head
						{
							OFFSET 0.624420 10.568160 -0.743820
							CHANNELS 3 Zrotation Yrotation Xrotation
							End Site
							{
								OFFSET 0.000000 0.000000 0.000000
							}
						}
					}
				}
				JOINT LeftShoulder
				{
					OFFSET 0.000000 0.000000 0.000000
					CHANNELS 3 Zrotation Yrotation Xrotation
					JOINT LeftArm
					{
						OFFSET 20.174460 7.205340 -1.867260
						CHANNELS 3 Zrotation Yrotation Xrotation
						JOINT LeftForeArm
						{
							OFFSET 29.898000 -0.000000 -0.000000
							CHANNELS 3 Zrotation Yrotation Xrotation
							JOINT LeftHand
							{
								OFFSET 20.901360 -0.000000 -0.000000
								CHANNELS 3 Zrotation Yrotation Xrotation
								JOINT LeftFingerBase
								{
									OFFSET 0.000000 0.000000 0.000000
									CHANNELS 3 Zrotation Yrotation Xrotation
									JOINT LeftHandIndex1
									{
										OFFSET 4.291560 -0.000000 -0.000000
										CHANNELS 3 Zrotation Yrotation Xrotation
										End Site
										{
											OFFSET 0.000000 0.000000 0.000000
										}
									}
								}
								JOINT LThumb
								{
									OFFSET 0.000000 0.000000 0.000000
									CHANNELS 3 Zrotation Yrotation Xrotation
									End Site
									{
										OFFSET 0.000000 0.000000 0.000000
									}
								}
							}
						}
					}
				}
				JOINT RightShoulder
				{
					OFFSET 0.000000 0.000000 0.000000
					CHANNELS 3 Zrotation Yrotation Xrotation
					JOINT RightArm
					{
						OFFSET -18.819600 8.244300 -2.427900
						CHANNELS 3 Zrotation Yrotation Xrotation
						JOINT RightForeArm
						{
							OFFSET -31.451400 -0.000000 -0.000000
							CHANNELS 3 Zrotation Yrotation Xrotation
							JOINT RightHand
							{
								OFFSET -20.665020 -0.000000 -0.000000
								CHANNELS 3 Zrotation Yrotation Xrotation
								JOINT RightFingerBase
								{
									OFFSET 0.000000 0.000000 0.000000
									CHANNELS 3 Zrotation Yrotation Xrotation
									JOINT RightHandIndex1
									{
										OFFSET -3.735180 -0.000000 -0.000000
										CHANNELS 3 Zrotation Yrotation Xrotation
										End Site
										{
											OFFSET 0.000000 0.000000 0.000000
										}
									}
								}
								JOINT RThumb
								{
									OFFSET 0.000000 0.000000 0.000000
									CHANNELS 3 Zrotation Yrotation Xrotation
									End Site
									{
										OFFSET 0.000000 0.000000 0.000000
									}
								}
							}
						}
					}
				}
			}
		}
	}
}
MOTION
Frames:	6
Frame Time:	0.0333333
0.967638 107.519580 12.245256 173.211463 -71.935427 -175.331049 -1.608003 2.504319 2.862155 -20.781485 5.037460 1.076097 -1.188164 1.414458 6.247501 -1.231127 11.108861 -0.812272 0.522000 -4.630400 -12.857400 -0.773408 -2.094821 0.310821 16.320421 -16.800904 -12.766606 -2.501945 -10.277218 30.800995 6.140028 -33.329620 -26.669503 -4.035200 -12.207100 36.468600 0.004413 2.673779 7.944679 1.327889 3.644244 2.097652 -1.334840 1.740527 -5.722765 -11.862311 -4.815096 -19.053727 6.783528 -5.067142 22.410816 4.323100 -2.969500 14.746400 -6.229690 -0.673209 -1.500110 -84.634283 2.055513 20.536624 16.159891 -22.544253 -3.640533 -0.953301 -1.853823 9.165274 17.460397 21.981563 7.572200 -7.125000 0.000000 0.000000 -11.896500 54.655500 -2.852100 5.054210 1.209902 -1.005754 82.770531 -3.993727 15.827942 -18.207904 26.331887 -4.294506 0.268979 -0.110859 5.658221 -14.680753 8.011152 -2.152700 7.125000 0.000000 0.000000 8.611300 -21.647800 4.881400 
0.309666 107.477970 12.793272 172.597720 -74.289812 -175.076122 -1.571917 2.567369 2.915051 -20.843103 4.908242 2.783453 -1.240480 0.641184 4.255160 -0.994130 9.354104 0.485483 0.685100 -5.291900 -14.743100 -0.849782 -2.117957 0.293796 15.473206 -15.112731 -10.542471 -2.647597 -10.443647 31.351861 6.560075 -33.948644 -24.708137 -4.192600 -12.412400 37.206800 -0.407910 2.641608 7.866088 1.489825 3.558201 2.209040 -0.852245 1.694458 -5.582103 -12.574557 -4.831383 -19.086025 7.437419 -4.915862 22.587492 4.765600 -2.908100 14.863000 -6.238096 -0.628863 -1.504922 -84.689790 2.284422 21.542669 16.077639 -22.439414 -3.605338 -0.998144 -1.919566 7.425833 18.582312 22.558428 8.308200 -7.125000 0.000000 0.000000 -10.928500 55.519100 -2.846200 5.060675 1.231470 -0.993227 82.842143 -4.041689 16.583849 -18.454319 26.662100 -4.418459 0.261687 -0.125412 6.446571 -14.501943 8.588950 -2.278600 7.125000 0.000000 0.000000 8.724100 -21.054600 5.065500 
-0.438054 107.483322 13.825692 169.971474 -76.605972 -172.215176 -1.566153 2.549545 2.921875 -21.805847 4.622340 3.940897 -1.286060 -0.169064 2.158147 -0.798025 7.791504 1.422851 0.635800 -5.101600 -14.198600 -0.905133 -2.133763 0.308616 13.872580 -14.150509 -9.968104 -2.943159 -10.826815 32.573902 6.034867 -31.698908 -21.318073 -5.017700 -13.403700 40.899100 -0.046851 2.462501 7.254686 1.346901 3.364414 2.103952 -1.248567 1.600721 -5.330352 -11.908525 -4.422162 -18.753368 6.595957 -4.490148 22.567664 4.360300 -2.769900 14.655800 -6.235699 -0.677805 -1.501545 -84.695672 2.692308 22.202195 15.969103 -22.299426 -3.558299 -0.997002 -1.969564 6.134509 18.951630 22.856655 8.599900 -7.125000 0.000000 0.000000 -10.654700 55.932000 -2.880900 5.056270 1.140773 -1.022746 83.075154 -4.093653 16.579953 -18.792607 27.120921 -4.587596 0.255693 -0.129291 6.955932 -14.351688 8.748113 -2.295200 7.125000 0.000000 0.000000 8.830100 -20.897300 5.160200 
-0.947430 107.404272 14.619774 166.165818 -78.880383 -168.328493 -1.596720 2.476349 2.902774 -22.573285 4.006167 4.119909 -1.267326 -0.187062 2.146113 -0.639294 6.116307 1.637413 0.666900 -5.222500 -14.544200 -0.957935 -2.135683 0.335113 12.738109 -12.417465 -8.830846 -3.187105 -11.067392 33.387563 5.228868 -28.266684 -16.539768 -4.293500 -12.541100 37.674100 -0.043346 2.355292 7.182386 1.198390 3.225313 1.977969 -1.469522 1.532644 -5.425589 -11.500925 -4.393875 -18.819952 6.074977 -4.548708 22.910716 4.066600 -2.825600 14.800300 -6.254921 -0.714717 -1.492129 -84.572522 2.771822 22.011000 15.645977 -21.837548 -3.404834 -0.973710 -1.936264 7.069437 18.078592 22.569697 8.077900 -7.125000 0.000000 0.000000 -11.472500 55.434900 -2.967000 5.057521 1.098475 -1.045032 83.489804 -4.113683 16.337737 -19.028193 27.419880 -4.702232 0.261826 -0.113731 6.538596 -14.547480 8.236931 -2.190700 7.125000 0.000000 0.000000 8.703800 -21.424000 4.979800 
-1.303458 107.294904 15.109542 163.224274 -81.190743 -165.487940 -1.601427 2.433214 2.892037 -22.664512 3.465602 4.483588 -1.246448 -0.200635 2.146408 -0.508622 4.555796 1.814175 0.680700 -5.275300 -14.695600 -0.975726 -2.117194 0.404625 12.779565 -9.951066 -7.333286 -3.330069 -11.225312 34.087765 3.767012 -22.784375 -16.410716 -2.889500 -10.514000 30.657900 -0.191817 2.177690 7.418942 1.327502 2.970152 1.911356 -1.184995 1.410715 -5.683048 -11.110102 -4.171480 -18.640171 5.393721 -4.259921 22.728513 3.753000 -2.744300 14.605400 -6.255331 -0.767778 -1.485840 -84.650593 2.919037 21.456716 15.471529 -21.586261 -3.320868 -0.969565 -1.893338 7.957420 17.635462 22.137157 7.725500 -7.125000 0.000000 0.000000 -11.745500 54.877500 -2.878900 5.074743 1.038301 -1.071315 83.660894 -4.113957 16.298387 -19.215717 27.655859 -4.793141 0.263085 -0.119288 6.048389 -14.580767 8.649030 -2.305900 7.125000 0.000000 0.000000 8.665600 -20.994200 5.042700 
-1.617288 107.219418 15.539862 158.977374 -83.257683 -161.362185 -1.710745 2.264222 2.811832 -22.723709 2.379474 2.593715 -1.077020 1.446485 6.538978 -0.421976 3.304571 -0.021746 0.725300 -5.441600 -15.172400 -0.977131 -2.072274 0.481035 13.173935 -7.512069 -6.077308 -3.495628 -11.370482 34.798068 2.300777 -16.472558 -16.090050 -1.363900 -7.391900 20.881700 -0.220528 2.118694 7.513864 1.358116 2.889501 1.975190 -1.078609 1.367994 -5.630410 -10.990258 -4.258414 -18.727833 5.468970 -4.424581 22.777331 3.737800 -2.782600 14.661400 -6.252791 -0.778116 -1.473825 -84.116081 2.733422 21.968995 15.323757 -21.398883 -3.256597 -0.997390 -1.906203 7.444860 18.103394 22.383610 8.031300 -7.125000 0.000000 0.000000 -11.336000 55.231500 -2.874700 5.084473 1.045334 -1.068671 83.890425 -3.893101 16.429254 -19.172277 27.599213 -4.772704 0.268225 -0.114598 5.713228 -14.740157 8.531092 -2.300200 7.125000 0.000000 0.000000 8.551900 -21.110700 4.952300 
